<svg width="24" height="26" viewBox="0 0 24 26" fill="none" xmlns="http://www.w3.org/2000/svg">
<path d="M22.7217 18.5056C21.118 16.6923 19.9858 15.7692 19.9858 10.7702C19.9858 6.19231 17.4555 4.56135 15.3729 3.76923C15.0962 3.66423 14.8358 3.42308 14.7515 3.16058C14.3862 2.01192 13.3621 1 12.0007 1C10.6394 1 9.61464 2.0125 9.25308 3.16173C9.16877 3.42712 8.90837 3.66423 8.63173 3.76923C6.54662 4.5625 4.01876 6.18769 4.01876 10.7702C4.01564 15.7692 2.88348 16.6923 1.27984 18.5056C0.615401 19.2567 1.19741 20.3846 2.35955 20.3846H21.6482C22.8041 20.3846 23.3823 19.2533 22.7217 18.5056Z" stroke="#898A8D" stroke-width="1.5" stroke-linecap="round" stroke-linejoin="round"/>
<path d="M15.9974 20.3846V21.3077C15.9974 22.287 15.5763 23.2261 14.8268 23.9185C14.0773 24.611 13.0607 25 12.0007 25C10.9408 25 9.92423 24.611 9.17472 23.9185C8.42521 23.2261 8.00414 22.287 8.00414 21.3077V20.3846" stroke="#898A8D" stroke-width="1.5" stroke-linecap="round" stroke-linejoin="round"/>
</svg>
