<svg width="18" height="15" viewBox="0 0 18 15" fill="none" xmlns="http://www.w3.org/2000/svg">
<path d="M7.77205 1.69373C6.48339 1.83564 5.26114 2.32424 4.243 3.10448L5.12419 3.96134C5.26621 4.10936 5.34353 4.30515 5.33985 4.50744C5.33618 4.70974 5.2518 4.90275 5.10449 5.04582C4.95718 5.18888 4.75845 5.27083 4.55016 5.2744C4.34187 5.27797 4.14028 5.20288 3.98787 5.06495L3.10239 4.20601C2.34982 5.12279 1.86016 6.2165 1.68305 7.37629H3.48402C3.69726 7.37629 3.90176 7.45856 4.05254 7.605C4.20332 7.75144 4.28803 7.95005 4.28803 8.15715C4.28803 8.36424 4.20332 8.56286 4.05254 8.7093C3.90176 8.85574 3.69726 8.938 3.48402 8.938H1.63481C1.80172 10.6089 2.58804 12.1641 3.84743 13.3139C3.99933 13.4564 4.0874 13.6512 4.09262 13.8563C4.09783 14.0613 4.01977 14.2601 3.87531 14.4097C3.73084 14.5593 3.53157 14.6477 3.32055 14.6558C3.10953 14.6639 2.90371 14.591 2.74755 14.4529C1.09666 12.9506 0 10.735 0 8.35809C0 3.78539 3.84529 0.0882874 8.57606 0.0882874C13.3068 0.0882874 17.1521 3.78435 17.1521 8.35809C17.15 9.49926 16.9088 10.6281 16.4433 11.6759C15.9778 12.7237 15.2976 13.6685 14.4442 14.4529C14.2881 14.591 14.0822 14.6639 13.8712 14.6558C13.6602 14.6477 13.4609 14.5593 13.3165 14.4097C13.172 14.2601 13.0939 14.0613 13.0992 13.8563C13.1044 13.6512 13.1924 13.4564 13.3443 13.3139C14.595 12.1621 15.3683 10.6056 15.5184 8.938H13.6681C13.4549 8.938 13.2504 8.85574 13.0996 8.7093C12.9488 8.56286 12.8641 8.36424 12.8641 8.15715C12.8641 7.95005 12.9488 7.75144 13.0996 7.605C13.2504 7.45856 13.4549 7.37629 13.6681 7.37629H15.4691C15.0145 4.39237 12.5178 2.04043 9.38006 1.69373V2.95143C9.38006 3.15853 9.29535 3.35714 9.14457 3.50358C8.99379 3.65002 8.78929 3.73229 8.57606 3.73229C8.36282 3.73229 8.15832 3.65002 8.00754 3.50358C7.85676 3.35714 7.77205 3.15853 7.77205 2.95143V1.69373ZM12.2734 4.05192C12.3708 3.97678 12.4921 3.93689 12.6165 3.93908C12.7409 3.94127 12.8606 3.98542 12.9551 4.06394C13.0497 4.14247 13.1132 4.25049 13.1347 4.36949C13.1562 4.48848 13.1344 4.61105 13.0731 4.71617L12.9552 4.92023C12.5241 5.65955 12.0903 6.39738 11.6538 7.1337C11.3048 7.72293 10.951 8.30946 10.5925 8.89324C10.4581 9.11286 10.3209 9.33083 10.1809 9.54707C10.0737 9.71053 9.96859 9.86566 9.89141 9.95312C9.61449 10.2682 9.22004 10.4635 8.79484 10.4961C8.36964 10.5287 7.94852 10.3959 7.62411 10.127C7.29971 9.85804 7.0986 9.47495 7.06503 9.06199C7.03146 8.64903 7.16817 8.24004 7.44509 7.92497C7.52227 7.83752 7.66271 7.71154 7.81279 7.58348C7.97359 7.44501 8.18049 7.2753 8.41311 7.08477C8.88051 6.70579 9.46582 6.24144 10.0361 5.79375C10.7164 5.25933 11.3989 4.72765 12.0837 4.19872L12.2734 4.05296V4.05192Z" fill="#2E516D"/>
</svg>
