<svg width="20" height="14" viewBox="0 0 20 14" fill="none" xmlns="http://www.w3.org/2000/svg">
<path d="M18.3333 6.33333H17.6667C17.4015 6.33333 17.1471 6.43869 16.9596 6.62623C16.772 6.81376 16.6667 7.06812 16.6667 7.33333V7.66667H16V6C16 5.73478 15.8946 5.48043 15.7071 5.29289C15.5196 5.10536 15.2652 5 15 5H14C13.9116 5 13.8268 4.96488 13.7643 4.90237C13.7018 4.83986 13.6667 4.75507 13.6667 4.66667V4C13.6667 3.73478 13.5613 3.48043 13.3738 3.29289C13.1862 3.10536 12.9319 3 12.6667 3H11.3333V2H13C13.2652 2 13.5196 1.89464 13.7071 1.70711C13.8946 1.51957 14 1.26522 14 1C14 0.734784 13.8946 0.480429 13.7071 0.292893C13.5196 0.105357 13.2652 0 13 0H6.33333C6.06812 0 5.81376 0.105357 5.62623 0.292893C5.43869 0.480429 5.33333 0.734784 5.33333 1C5.33333 1.26522 5.43869 1.51957 5.62623 1.70711C5.81376 1.89464 6.06812 2 6.33333 2H8V3H6.33333C6.06812 3 5.81376 3.10536 5.62623 3.29289C5.43869 3.48043 5.33333 3.73478 5.33333 4C5.33333 4.08841 5.29821 4.17319 5.2357 4.2357C5.17319 4.29821 5.08841 4.33333 5 4.33333H4C3.73478 4.33333 3.48043 4.43869 3.29289 4.62623C3.10536 4.81376 3 5.06812 3 5.33333V6.66667H2V5.33333C2 5.06812 1.89464 4.81376 1.70711 4.62623C1.51957 4.43869 1.26522 4.33333 1 4.33333C0.734784 4.33333 0.48043 4.43869 0.292893 4.62623C0.105357 4.81376 0 5.06812 0 5.33333L0 10.6667C0 10.9319 0.105357 11.1862 0.292893 11.3738C0.48043 11.5613 0.734784 11.6667 1 11.6667C1.26522 11.6667 1.51957 11.5613 1.70711 11.3738C1.89464 11.1862 2 10.9319 2 10.6667V9.33333H3V11C3 11.2652 3.10536 11.5196 3.29289 11.7071C3.48043 11.8946 3.73478 12 4 12H5.39067C5.47907 12 5.56384 12.0352 5.62633 12.0977L7.23567 13.707C7.32826 13.8002 7.43843 13.8741 7.5598 13.9244C7.68116 13.9747 7.8113 14.0004 7.94267 14H15C15.2652 14 15.5196 13.8946 15.7071 13.7071C15.8946 13.5196 16 13.2652 16 13V11.6667H16.6667V12C16.6667 12.2652 16.772 12.5196 16.9596 12.7071C17.1471 12.8946 17.4015 13 17.6667 13H18.3333C18.7752 12.9995 19.1988 12.8237 19.5113 12.5113C19.8237 12.1988 19.9995 11.7752 20 11.3333V8C19.9995 7.55814 19.8237 7.13452 19.5113 6.82207C19.1988 6.50963 18.7752 6.33386 18.3333 6.33333ZM6 1C6 0.911595 6.03512 0.82681 6.09763 0.764298C6.16014 0.701786 6.24493 0.666667 6.33333 0.666667H13C13.0884 0.666667 13.1732 0.701786 13.2357 0.764298C13.2982 0.82681 13.3333 0.911595 13.3333 1C13.3333 1.08841 13.2982 1.17319 13.2357 1.2357C13.1732 1.29821 13.0884 1.33333 13 1.33333H6.33333C6.24493 1.33333 6.16014 1.29821 6.09763 1.2357C6.03512 1.17319 6 1.08841 6 1ZM8.66667 2H10.6667V3H8.66667V2ZM1.33333 10.6667C1.33333 10.7551 1.29821 10.8399 1.2357 10.9024C1.17319 10.9649 1.08841 11 1 11C0.911595 11 0.82681 10.9649 0.764298 10.9024C0.701786 10.8399 0.666667 10.7551 0.666667 10.6667V5.33333C0.666667 5.24493 0.701786 5.16014 0.764298 5.09763C0.82681 5.03512 0.911595 5 1 5C1.08841 5 1.17319 5.03512 1.2357 5.09763C1.29821 5.16014 1.33333 5.24493 1.33333 5.33333V10.6667ZM2 8.66667V7.33333H3V8.66667H2ZM15.3333 13C15.3333 13.0884 15.2982 13.1732 15.2357 13.2357C15.1732 13.2982 15.0884 13.3333 15 13.3333H7.94267C7.85427 13.3333 7.7695 13.2982 7.707 13.2357L6.09767 11.6263C6.00503 11.5332 5.89485 11.4594 5.7735 11.4091C5.65214 11.3588 5.52203 11.333 5.39067 11.3333H4C3.91159 11.3333 3.82681 11.2982 3.7643 11.2357C3.70179 11.1732 3.66667 11.0884 3.66667 11V5.33333C3.66667 5.24493 3.70179 5.16014 3.7643 5.09763C3.82681 5.03512 3.91159 5 4 5H5C5.26522 5 5.51957 4.89464 5.70711 4.70711C5.89464 4.51957 6 4.26522 6 4C6 3.91159 6.03512 3.82681 6.09763 3.7643C6.16014 3.70179 6.24493 3.66667 6.33333 3.66667H12.6667C12.7551 3.66667 12.8399 3.70179 12.9024 3.7643C12.9649 3.82681 13 3.91159 13 4V4.66667C13 4.93188 13.1054 5.18624 13.2929 5.37377C13.4804 5.56131 13.7348 5.66667 14 5.66667H15C15.0884 5.66667 15.1732 5.70179 15.2357 5.7643C15.2982 5.82681 15.3333 5.91159 15.3333 6V13ZM16 11V8.33333H16.6667V11H16ZM19.3333 11.3333C19.3333 11.5985 19.228 11.8529 19.0404 12.0404C18.8529 12.228 18.5986 12.3333 18.3333 12.3333H17.6667C17.5783 12.3333 17.4935 12.2982 17.431 12.2357C17.3685 12.1732 17.3333 12.0884 17.3333 12V7.33333C17.3333 7.24493 17.3685 7.16014 17.431 7.09763C17.4935 7.03512 17.5783 7 17.6667 7H18.3333C18.5986 7 18.8529 7.10536 19.0404 7.29289C19.228 7.48043 19.3333 7.73478 19.3333 8V11.3333Z" fill="#28A745"/>
</svg>
