<svg width="39" height="39" viewBox="0 0 39 39" fill="none" xmlns="http://www.w3.org/2000/svg">
<g filter="url(#filter0_b_102_358)">
<circle cx="19.5" cy="19.5" r="19.5" fill="#0FACF5" fill-opacity="0.96"/>
</g>
<path d="M11.9618 23V15.2L12.6458 15.908H10.1858V14.6H13.5218V23H11.9618ZM18.6922 23.12C18.0282 23.12 17.4282 22.952 16.8922 22.616C16.3642 22.28 15.9482 21.792 15.6442 21.152C15.3402 20.504 15.1882 19.72 15.1882 18.8C15.1882 17.88 15.3402 17.1 15.6442 16.46C15.9482 15.812 16.3642 15.32 16.8922 14.984C17.4282 14.648 18.0282 14.48 18.6922 14.48C19.3642 14.48 19.9642 14.648 20.4922 14.984C21.0202 15.32 21.4362 15.812 21.7402 16.46C22.0522 17.1 22.2082 17.88 22.2082 18.8C22.2082 19.72 22.0522 20.504 21.7402 21.152C21.4362 21.792 21.0202 22.28 20.4922 22.616C19.9642 22.952 19.3642 23.12 18.6922 23.12ZM18.6922 21.764C19.0842 21.764 19.4242 21.66 19.7122 21.452C20.0002 21.236 20.2242 20.908 20.3842 20.468C20.5522 20.028 20.6362 19.472 20.6362 18.8C20.6362 18.12 20.5522 17.564 20.3842 17.132C20.2242 16.692 20.0002 16.368 19.7122 16.16C19.4242 15.944 19.0842 15.836 18.6922 15.836C18.3162 15.836 17.9802 15.944 17.6842 16.16C17.3962 16.368 17.1682 16.692 17.0002 17.132C16.8402 17.564 16.7602 18.12 16.7602 18.8C16.7602 19.472 16.8402 20.028 17.0002 20.468C17.1682 20.908 17.3962 21.236 17.6842 21.452C17.9802 21.66 18.3162 21.764 18.6922 21.764ZM25.6984 23.084C25.1624 23.084 24.6464 23.016 24.1504 22.88C23.6624 22.736 23.2744 22.564 22.9864 22.364L23.5624 21.224C23.8504 21.408 24.1944 21.56 24.5944 21.68C24.9944 21.8 25.3944 21.86 25.7944 21.86C26.2664 21.86 26.6064 21.796 26.8144 21.668C27.0304 21.54 27.1384 21.368 27.1384 21.152C27.1384 20.976 27.0664 20.844 26.9224 20.756C26.7784 20.66 26.5904 20.588 26.3584 20.54C26.1264 20.492 25.8664 20.448 25.5784 20.408C25.2984 20.368 25.0144 20.316 24.7264 20.252C24.4464 20.18 24.1904 20.08 23.9584 19.952C23.7264 19.816 23.5384 19.636 23.3944 19.412C23.2504 19.188 23.1784 18.892 23.1784 18.524C23.1784 18.116 23.2944 17.764 23.5264 17.468C23.7584 17.164 24.0824 16.932 24.4984 16.772C24.9224 16.604 25.4224 16.52 25.9984 16.52C26.4304 16.52 26.8664 16.568 27.3064 16.664C27.7464 16.76 28.1104 16.896 28.3984 17.072L27.8224 18.212C27.5184 18.028 27.2104 17.904 26.8984 17.84C26.5944 17.768 26.2904 17.732 25.9864 17.732C25.5304 17.732 25.1904 17.8 24.9664 17.936C24.7504 18.072 24.6424 18.244 24.6424 18.452C24.6424 18.644 24.7144 18.788 24.8584 18.884C25.0024 18.98 25.1904 19.056 25.4224 19.112C25.6544 19.168 25.9104 19.216 26.1904 19.256C26.4784 19.288 26.7624 19.34 27.0424 19.412C27.3224 19.484 27.5784 19.584 27.8104 19.712C28.0504 19.832 28.2424 20.004 28.3864 20.228C28.5304 20.452 28.6024 20.744 28.6024 21.104C28.6024 21.504 28.4824 21.852 28.2424 22.148C28.0104 22.444 27.6784 22.676 27.2464 22.844C26.8144 23.004 26.2984 23.084 25.6984 23.084Z" fill="#D9D9D9"/>
<defs>
<filter id="filter0_b_102_358" x="-87" y="-87" width="213" height="213" filterUnits="userSpaceOnUse" color-interpolation-filters="sRGB">
<feFlood flood-opacity="0" result="BackgroundImageFix"/>
<feGaussianBlur in="BackgroundImageFix" stdDeviation="43.5"/>
<feComposite in2="SourceAlpha" operator="in" result="effect1_backgroundBlur_102_358"/>
<feBlend mode="normal" in="SourceGraphic" in2="effect1_backgroundBlur_102_358" result="shape"/>
</filter>
</defs>
</svg>
