<svg width="18" height="18" viewBox="0 0 18 18" fill="none" xmlns="http://www.w3.org/2000/svg">
<path d="M16.712 4.80835L16.7225 4.79597L13.7225 2.43593L12.7775 3.56788L14.3278 4.78723C13.9432 5.0142 13.6378 5.34829 13.4514 5.74606C13.2649 6.14383 13.206 6.58688 13.2823 7.01761C13.3948 7.67245 13.859 8.23842 14.4598 8.55528C15.131 8.91001 15.7197 8.87724 16.2432 8.69659L16.232 13.1996C16.2329 13.3202 16.2028 13.4391 16.1445 13.5456C16.0862 13.6521 16.0014 13.7428 15.8979 13.8095C15.7944 13.8761 15.6755 13.9167 15.5518 13.9275C15.4281 13.9383 15.3036 13.9189 15.1895 13.8712C15.1002 13.8341 15.0191 13.7804 14.951 13.7131C14.8817 13.6457 14.8267 13.5656 14.7893 13.4775C14.7518 13.3893 14.7326 13.2949 14.7327 13.1996L14.75 11.7428C14.7508 11.4561 14.693 11.1721 14.5801 10.9071C14.4672 10.6422 14.3014 10.4016 14.0922 10.1993C13.8833 9.99593 13.6351 9.83457 13.3619 9.72445C13.0887 9.61434 12.7958 9.55763 12.5 9.55757H11.75V3.73031C11.75 3.34394 11.592 2.97339 11.3107 2.70019C11.0294 2.42698 10.6478 2.2735 10.25 2.2735H5C4.60218 2.2735 4.22064 2.42698 3.93934 2.70019C3.65804 2.97339 3.5 3.34394 3.5 3.73031V13.928C3.5 14.3144 3.65804 14.6849 3.93934 14.9581C4.22064 15.2313 4.60218 15.3848 5 15.3848H10.25C10.6478 15.3848 11.0294 15.2313 11.3107 14.9581C11.592 14.6849 11.75 14.3144 11.75 13.928V11.0144H12.5C12.602 11.0144 12.7002 11.034 12.7933 11.0712C12.9717 11.1471 13.114 11.2858 13.1915 11.4594C13.2304 11.5491 13.2503 11.6455 13.25 11.7428L13.232 13.1996C13.232 13.4953 13.2913 13.7816 13.409 14.0504C13.5223 14.3119 13.685 14.5457 13.8897 14.7431C14.0979 14.9474 14.346 15.1094 14.6194 15.2196C14.8928 15.3298 15.186 15.386 15.482 15.3848C15.7865 15.3848 16.0805 15.328 16.358 15.2129C16.6265 15.1037 16.868 14.9456 17.0712 14.746C17.2812 14.5435 17.4477 14.3025 17.5611 14.0371C17.6746 13.7717 17.7326 13.487 17.732 13.1996L17.75 6.64394C17.7493 6.278 17.6538 5.91812 17.4724 5.59737C17.291 5.27662 17.0296 5.0053 16.712 4.80835ZM10.25 5.91553H5V3.73031H10.25V5.91553ZM15.5 7.37235C15.3011 7.37235 15.1103 7.2956 14.9697 7.159C14.829 7.0224 14.75 6.83713 14.75 6.64394C14.75 6.45075 14.829 6.26548 14.9697 6.12888C15.1103 5.99228 15.3011 5.91553 15.5 5.91553C15.6989 5.91553 15.8897 5.99228 16.0303 6.12888C16.171 6.26548 16.25 6.45075 16.25 6.64394C16.25 6.83713 16.171 7.0224 16.0303 7.159C15.8897 7.2956 15.6989 7.37235 15.5 7.37235Z" fill="#2E516D"/>
</svg>
