<svg width="16" height="16" viewBox="0 0 16 16" fill="none" xmlns="http://www.w3.org/2000/svg">
<g clip-path="url(#clip0_1_708)">
<path d="M13.1469 14.0843C11.7594 15.2562 9.95948 15.9999 8.00007 15.9999C5.08445 15.9999 2.52504 14.3937 1.13757 12.0499L1.65701 9.6555L3.95945 9.22806C4.49382 10.953 6.10629 12.2187 8.00007 12.2187C8.91879 12.2187 9.77195 11.9281 10.4751 11.4124L12.6876 11.7499L13.1469 14.0843Z" fill="#18567F"/>
<path d="M13.1469 14.0844L12.6875 11.7501L10.475 11.4126C9.77188 11.9282 8.91872 12.2188 8 12.2188V16.0001C9.95941 16.0001 11.7594 15.2563 13.1469 14.0844Z" fill="#00A66C"/>
<path d="M3.78125 7.99998C3.78125 8.4312 3.84687 8.8437 3.95937 9.22811L1.1375 12.05C0.434375 10.8687 0 9.4812 0 7.99998C0 6.5187 0.434375 5.13123 1.1375 3.94998L3.40228 4.33976L3.95937 6.77186C3.84687 7.1562 3.78125 7.5687 3.78125 7.99998Z" fill="#FFDA2D"/>
<path d="M16 8C16 10.4375 14.8719 12.6219 13.1469 14.0844L10.475 11.4125C11.0187 11.0187 11.4781 10.4937 11.7781 9.875H8C7.73747 9.875 7.53125 9.66872 7.53125 9.40625V6.59375C7.53125 6.33122 7.73747 6.125 8 6.125H15.4C15.625 6.125 15.8219 6.28434 15.8594 6.50934C15.9531 6.99687 16 7.50309 16 8V8Z" fill="#18567F"/>
<path d="M11.7782 9.875C11.4782 10.4937 11.0187 11.0187 10.475 11.4125L13.1469 14.0844C14.8719 12.6219 16 10.4375 16 8C16 7.50309 15.9531 6.99687 15.8593 6.50934C15.8219 6.28434 15.625 6.125 15.4 6.125H8V9.875H11.7782Z" fill="#18567F"/>
<path d="M13.2782 2.23434C13.2876 2.36559 13.2313 2.4875 13.1469 2.58122L11.1407 4.57809C10.9814 4.74684 10.7189 4.76559 10.5314 4.62497C9.79067 4.07187 8.91879 3.78125 8.00007 3.78125C6.10629 3.78125 4.49382 5.04684 3.95945 6.77187L1.13757 3.95C2.52504 1.60625 5.08445 0 8.00007 0C9.8657 0 11.6844 0.6875 13.1094 1.88747C13.2126 1.97187 13.2688 2.10309 13.2782 2.23434V2.23434Z" fill="#18567F"/>
<path d="M10.5313 4.62497C10.7188 4.76562 10.9812 4.74684 11.1406 4.57809L13.1469 2.58122C13.2313 2.4875 13.2875 2.36563 13.2781 2.23434C13.2687 2.10306 13.2125 1.97187 13.1094 1.88747C11.6844 0.6875 9.86563 0 8 0V3.78125C8.91872 3.78125 9.7906 4.07187 10.5313 4.62497Z" fill="#F03800"/>
</g>
<defs>
<clipPath id="clip0_1_708">
<rect width="16" height="16" fill="white"/>
</clipPath>
</defs>
</svg>
