<svg width="39" height="39" viewBox="0 0 39 39" fill="none" xmlns="http://www.w3.org/2000/svg">
<g filter="url(#filter0_b_102_352)">
<circle cx="19.5" cy="19.5" r="19.5" fill="#0FACF5" fill-opacity="0.96"/>
</g>
<path d="M19 5.75C16.3884 5.75 14.25 7.88843 14.25 10.5C14.25 11.822 14.8159 13.0142 15.6973 13.877C14.1155 14.9485 13.0625 16.7715 13.0625 18.8125V24.3047L15.4375 25.4922V30.6875H22.5625V25.4922L24.9375 24.3047V18.8125C24.9375 16.7715 23.8845 14.9485 22.3027 13.877C23.1841 13.0142 23.75 11.822 23.75 10.5C23.75 7.88843 21.6116 5.75 19 5.75ZM19 8.125C20.3267 8.125 21.375 9.17334 21.375 10.5C21.375 11.8267 20.3267 12.875 19 12.875C17.6733 12.875 16.625 11.8267 16.625 10.5C16.625 9.17334 17.6733 8.125 19 8.125ZM19 15.25C20.9807 15.25 22.5625 16.8318 22.5625 18.8125V22.8203L20.1875 24.0078V28.3125H17.8125V24.0078L15.4375 22.8203V18.8125C15.4375 16.8318 17.0193 15.25 19 15.25ZM10.6875 23.4141C7.22241 24.3835 4.75 26.0256 4.75 28.3125C4.75 32.209 11.9167 34.25 19 34.25C26.0833 34.25 33.25 32.209 33.25 28.3125C33.25 26.0256 30.7776 24.3835 27.3125 23.4141V25.9004C29.5715 26.6287 30.875 27.5703 30.875 28.3125C30.875 29.7319 26.1389 31.875 19 31.875C11.8611 31.875 7.125 29.7319 7.125 28.3125C7.125 27.5703 8.42847 26.6287 10.6875 25.9004V23.4141Z" fill="#DBDBDB"/>
<defs>
<filter id="filter0_b_102_352" x="-87" y="-87" width="213" height="213" filterUnits="userSpaceOnUse" color-interpolation-filters="sRGB">
<feFlood flood-opacity="0" result="BackgroundImageFix"/>
<feGaussianBlur in="BackgroundImageFix" stdDeviation="43.5"/>
<feComposite in2="SourceAlpha" operator="in" result="effect1_backgroundBlur_102_352"/>
<feBlend mode="normal" in="SourceGraphic" in2="effect1_backgroundBlur_102_352" result="shape"/>
</filter>
</defs>
</svg>
