<svg width="17" height="11" viewBox="0 0 17 11" fill="none" xmlns="http://www.w3.org/2000/svg">
<path fill-rule="evenodd" clip-rule="evenodd" d="M16 0.00192261H15C14.4477 0.00192261 14 0.436748 14 0.973132V9.39028C14 9.92666 14.4477 10.3615 15 10.3615H16C16.5523 10.3615 17 9.92666 17 9.39028V0.973132C17 0.436748 16.5523 0.00192261 16 0.00192261ZM10 1.94434H11C11.5523 1.94434 12 2.37916 12 2.91555V9.06654C12 9.60292 11.5523 10.0377 11 10.0377H10C9.44771 10.0377 9 9.60292 9 9.06654V2.91555C9 2.37916 9.44771 1.94434 10 1.94434ZM6.66667 4.53422H5.66667C5.11439 4.53422 4.66667 4.96904 4.66667 5.50543V9.39027C4.66667 9.92665 5.11439 10.3615 5.66667 10.3615H6.66667C7.21896 10.3615 7.66667 9.92665 7.66667 9.39027V5.50543C7.66667 4.96904 7.21896 4.53422 6.66667 4.53422ZM2 6.47664H1C0.447715 6.47664 0 6.91146 0 7.44785V9.39027C0 9.92665 0.447715 10.3615 1 10.3615H2C2.55228 10.3615 3 9.92665 3 9.39027V7.44785C3 6.91146 2.55228 6.47664 2 6.47664Z" fill="#2E516D"/>
</svg>
