<svg width="11" height="11" viewBox="0 0 11 11" fill="none" xmlns="http://www.w3.org/2000/svg">
<path d="M2.61377 5.97818L2.09424 6.67279H2.61186L2.61377 5.97818Z" fill="black"/>
<path d="M8.74414 0H2.25586C1.01198 0 0 1.01198 0 2.25586V8.74414C0 9.98802 1.01198 11 2.25586 11H8.74414C9.98802 11 11 9.98802 11 8.74414V2.25586C11 1.01198 9.98802 0 8.74414 0ZM1.28906 7.31732V6.67303L2.56158 4.97174H3.26096L3.25628 6.67279H3.90575C3.90534 6.65784 3.90461 6.64297 3.90461 6.62793C3.90461 5.71472 4.64756 4.97174 5.5608 4.97174C5.92595 4.97174 6.27243 5.08849 6.56275 5.30937L6.17246 5.82231C5.9953 5.68752 5.78379 5.61627 5.5608 5.61627C5.00296 5.61627 4.54914 6.07011 4.54914 6.62793C4.54914 7.18575 5.00296 7.63959 5.5608 7.63959C5.73261 7.63959 5.89761 7.59728 6.04534 7.51622V6.9502H5.5V6.30566H6.68987V7.84977L6.56275 7.94649C6.27243 8.16737 5.92595 8.28412 5.5608 8.28412C4.89352 8.28412 4.31756 7.88724 4.0555 7.31732H3.2545L3.25183 8.28502L2.6073 8.28324L2.60996 7.31734L1.28906 7.31732ZM7.77734 6.60455C7.77734 5.34881 6.75572 4.32721 5.5 4.32721V3.68268C7.11111 3.68268 8.42188 4.99342 8.42188 6.60455H7.77734ZM5.5 3.03815V2.39362C7.82192 2.39362 9.71094 4.28263 9.71094 6.60455H9.06641C9.06641 4.63803 7.46651 3.03815 5.5 3.03815Z" fill="#2E516D"/>
</svg>
