<svg width="39" height="39" viewBox="0 0 39 39" fill="none" xmlns="http://www.w3.org/2000/svg">
<g filter="url(#filter0_b_102_361)">
<circle cx="19.5" cy="19.5" r="19.5" fill="#0FACF5" fill-opacity="0.96"/>
</g>
<path d="M27.7244 29.1606C27.5644 29.1606 27.4044 29.0994 27.2825 28.9775L21.6331 23.3281C21.5513 23.2463 21.4938 23.1438 21.4669 23.0313L20.8781 20.5681L20.0056 21.3888C19.7594 21.6206 19.375 21.6156 19.135 21.3763L17.4831 19.725C17.2681 19.5094 17.2388 19.1713 17.4144 18.9231L18.2981 17.6675C18.2888 17.6656 18.2806 17.6631 18.2713 17.6613C17.6794 17.5194 17.1206 17.3856 16.5731 17.3656C15.5494 17.3275 14.7563 17.1 13.9638 16.0825C13.0794 14.9463 12.0725 13.9113 11.0069 12.8156C10.5581 12.355 10.105 11.8894 9.65375 11.4081C9.41813 11.1569 9.43063 10.7625 9.68063 10.5263L13.5075 6.90875C13.6356 6.78688 13.8119 6.72438 13.9888 6.74C14.1663 6.755 14.3288 6.84438 14.4356 6.98625C15.0831 7.84375 15.9356 8.53063 16.8387 9.2575C18.7681 10.8113 20.9544 12.5731 20.7194 16.2406C20.7119 16.3556 20.6731 16.4663 20.6063 16.56L18.7394 19.2125L19.59 20.0619L21.9181 17.8719C22.0725 17.7269 22.2925 17.67 22.4969 17.7206L26.9813 18.8319C27.0944 18.86 27.1969 18.9188 27.2781 19.0013L32.3387 24.1794C32.4562 24.2988 32.5206 24.4613 32.5169 24.6294C32.5131 24.7975 32.4425 24.9563 32.3206 25.0719L28.1544 28.9906C28.0319 29.105 27.8781 29.1606 27.7244 29.1606ZM22.6419 22.5694L27.7375 27.6656L30.9981 24.5981L26.46 19.9913L22.5256 19.0169L21.9263 19.5806L22.6419 22.5694ZM10.9938 11.0056C11.2969 11.3231 11.6013 11.635 11.9019 11.9444C12.9931 13.065 14.0238 14.1244 14.95 15.315C15.4581 15.9669 15.8744 16.0894 16.6188 16.1163C17.29 16.1413 17.9363 16.2956 18.5613 16.445C18.7319 16.4856 18.9031 16.5269 19.0737 16.565L19.4794 15.9888C19.5994 13.0888 17.9537 11.7625 16.0531 10.2319C15.3062 9.63 14.5381 9.01125 13.8794 8.27688L10.9938 11.0056Z" fill="#E8E8E8"/>
<path d="M18.1675 29.5494C18.1506 29.5494 18.1325 29.5481 18.115 29.5469C17.9031 29.5294 17.6894 29.5212 17.4756 29.5125C16.9681 29.4931 16.4437 29.4731 15.9212 29.3381C11.5225 28.2031 9.2525 25.04 9.69375 20.6606C9.72875 20.3175 10.0344 20.0681 10.3787 20.1006C10.7219 20.1363 10.9725 20.4425 10.9381 20.7856C10.4531 25.5988 13.5506 27.435 16.2344 28.1281C16.6269 28.2294 17.0625 28.2456 17.5244 28.2638C17.7569 28.2725 17.9894 28.2819 18.2194 28.3012C18.5638 28.33 18.8194 28.6319 18.79 28.9763C18.7625 29.3025 18.4888 29.5494 18.1675 29.5494Z" fill="#DBDBDB"/>
<path d="M18.5156 27.1063C14.0819 27.1063 11.435 24.5894 11.435 20.3744C11.435 20.0288 11.7144 19.7494 12.06 19.7494C12.4056 19.7494 12.685 20.0288 12.685 20.3744C12.685 23.8581 14.81 25.8563 18.5156 25.8563C18.8612 25.8563 19.1406 26.1356 19.1406 26.4813C19.1406 26.8263 18.8612 27.1063 18.5156 27.1063Z" fill="#DBDBDB"/>
<path d="M17.5775 24.67C16.5144 24.67 15.6031 24.3294 14.9294 23.6762C14.0925 22.8644 13.6681 21.5975 13.7031 20.0119C13.7113 19.6712 13.9894 19.4 14.3281 19.4C14.3325 19.4 14.3375 19.4 14.3419 19.4006C14.6869 19.4081 14.96 19.6944 14.9531 20.0387C14.9256 21.2675 15.2188 22.2144 15.7994 22.7787C16.3975 23.3587 17.2069 23.4425 17.7844 23.4144C18.1256 23.3894 18.4231 23.6606 18.4419 24.005C18.4606 24.3494 18.195 24.6437 17.8506 24.6625C17.7588 24.6675 17.6675 24.67 17.5775 24.67Z" fill="#DBDBDB"/>
<path d="M22.7031 18.7313C22.5656 18.7313 22.4281 18.6863 22.3125 18.5931C22.0431 18.3769 22 17.9838 22.2169 17.7144L23.2787 16.3913L21.9375 15.3863L20.79 16.1775C20.5056 16.3731 20.1169 16.3019 19.9206 16.0181C19.725 15.7338 19.7962 15.345 20.0806 15.1488L21.5969 14.1025C21.8175 13.95 22.1119 13.9556 22.3269 14.1163L24.5462 15.7788C24.6819 15.8806 24.77 16.0325 24.7919 16.2006C24.8137 16.3688 24.765 16.5381 24.6594 16.67L23.1913 18.4975C23.0675 18.6506 22.8862 18.7313 22.7031 18.7313Z" fill="#DBDBDB"/>
<defs>
<filter id="filter0_b_102_361" x="-87" y="-87" width="213" height="213" filterUnits="userSpaceOnUse" color-interpolation-filters="sRGB">
<feFlood flood-opacity="0" result="BackgroundImageFix"/>
<feGaussianBlur in="BackgroundImageFix" stdDeviation="43.5"/>
<feComposite in2="SourceAlpha" operator="in" result="effect1_backgroundBlur_102_361"/>
<feBlend mode="normal" in="SourceGraphic" in2="effect1_backgroundBlur_102_361" result="shape"/>
</filter>
</defs>
</svg>
