<svg width="30" height="33" viewBox="0 0 30 33" fill="none" xmlns="http://www.w3.org/2000/svg">
<path d="M12.2728 23.8639C12.2746 22.1272 12.7864 20.4292 13.7449 18.981C14.7033 17.5327 16.0661 16.3979 17.664 15.7175C19.2618 15.0371 21.0244 14.841 22.7327 15.1538C24.441 15.4665 26.0198 16.2742 27.273 17.4765V4.09095C27.273 3.00596 26.842 1.96541 26.0748 1.19821C25.3076 0.431009 24.267 0 23.182 0L6.81825 0C5.0106 0.00216528 3.27761 0.72121 1.99941 1.99941C0.72121 3.27761 0.00216528 5.0106 0 6.81825V25.9093C0.00216528 27.717 0.72121 29.45 1.99941 30.7282C3.27761 32.0064 5.0106 32.7254 6.81825 32.7276H21.1366C18.7858 32.7276 16.5312 31.7937 14.869 30.1315C13.2067 28.4692 12.2728 26.2147 12.2728 23.8639ZM6.81825 9.54555C6.81825 9.18388 6.96192 8.83704 7.21765 8.5813C7.47339 8.32557 7.82024 8.1819 8.1819 8.1819H19.0911C19.4528 8.1819 19.7996 8.32557 20.0553 8.5813C20.3111 8.83704 20.4547 9.18388 20.4547 9.54555C20.4547 9.90721 20.3111 10.2541 20.0553 10.5098C19.7996 10.7655 19.4528 10.9092 19.0911 10.9092H8.1819C7.82024 10.9092 7.47339 10.7655 7.21765 10.5098C6.96192 10.2541 6.81825 9.90721 6.81825 9.54555ZM29.6007 32.328C29.345 32.5837 28.9982 32.7273 28.6366 32.7273C28.2751 32.7273 27.9283 32.5837 27.6725 32.328L24.3902 29.0457C23.4182 29.6661 22.2897 29.9972 21.1366 30.0003C19.9229 30.0003 18.7365 29.6404 17.7274 28.9661C16.7182 28.2918 15.9317 27.3335 15.4673 26.2122C15.0028 25.0909 14.8813 23.8571 15.1181 22.6667C15.3548 21.4764 15.9393 20.383 16.7975 19.5248C17.6557 18.6666 18.7491 18.0821 19.9394 17.8454C21.1298 17.6086 22.3636 17.7301 23.4849 18.1945C24.6062 18.659 25.5645 19.4455 26.2388 20.4547C26.9131 21.4638 27.273 22.6502 27.273 23.8639C27.2699 25.017 26.9388 26.1455 26.3184 27.1175L29.6007 30.3998C29.8564 30.6556 30 31.0023 30 31.3639C30 31.7255 29.8564 32.0723 29.6007 32.328Z" fill="#2E516D"/>
</svg>
