<svg width="18" height="11" viewBox="0 0 18 11" fill="none" xmlns="http://www.w3.org/2000/svg">
<path d="M1 10.6653H2C2.55228 10.6653 3 10.2176 3 9.66534V7.66534C3 7.11306 2.55228 6.66534 2 6.66534H1C0.447715 6.66534 0 7.11306 0 7.66534V9.66534C0 10.2176 0.447715 10.6653 1 10.6653Z" fill="#28A745"/>
<path d="M6 10.6653H7C7.55228 10.6653 8 10.2176 8 9.66534V5.66534C8 5.11306 7.55228 4.66534 7 4.66534H6C5.44772 4.66534 5 5.11306 5 5.66534V9.66534C5 10.2176 5.44772 10.6653 6 10.6653Z" fill="#28A745"/>
<path d="M11 10.6653H12C12.5523 10.6653 13 10.2177 13 9.66547V3.33292C13 2.7807 12.5523 2.33305 12 2.33305H11C10.4477 2.33305 10 2.7807 10 3.33292V9.66547C10 10.2177 10.4477 10.6653 11 10.6653Z" fill="#28A745"/>
<path d="M16 10.6653H17C17.5523 10.6653 18 10.2177 18 9.66547V0.999876C18 0.447659 17.5523 0 17 0H16C15.4477 0 15 0.447659 15 0.999876V9.66547C15 10.2177 15.4477 10.6653 16 10.6653V10.6653Z" fill="#28A745"/>
</svg>
