<svg width="28" height="25" viewBox="0 0 28 25" fill="none" xmlns="http://www.w3.org/2000/svg">
<path d="M12.6875 2.6985C10.5838 2.93704 8.58856 3.75829 6.9265 5.06975L8.365 6.51C8.59684 6.75881 8.72306 7.08789 8.71706 7.42791C8.71106 7.76794 8.57331 8.09237 8.33284 8.33284C8.09237 8.57331 7.76794 8.71106 7.42791 8.71706C7.08789 8.72306 6.75881 8.59684 6.51 8.365L5.0645 6.92125C3.83596 8.46222 3.03663 10.3006 2.7475 12.25H5.6875C6.0356 12.25 6.36944 12.3883 6.61558 12.6344C6.86172 12.8806 7 13.2144 7 13.5625C7 13.9106 6.86172 14.2444 6.61558 14.4906C6.36944 14.7367 6.0356 14.875 5.6875 14.875H2.66875C2.94122 17.6836 4.22485 20.2975 6.28075 22.2302C6.52871 22.4698 6.67249 22.7972 6.681 23.1419C6.68952 23.4865 6.56209 23.8207 6.32625 24.0721C6.09042 24.3236 5.76512 24.4722 5.42064 24.4858C5.07616 24.4993 4.74016 24.3769 4.48525 24.1448C1.79025 21.6195 0 17.8955 0 13.9002C0 6.21425 6.27725 0 14 0C21.7227 0 28 6.2125 28 13.9002C27.9966 15.8184 27.6029 17.7158 26.8429 19.4769C26.083 21.2381 24.9727 22.8263 23.5795 24.1448C23.3246 24.3769 22.9886 24.4993 22.6441 24.4858C22.2996 24.4722 21.9743 24.3236 21.7385 24.0721C21.5027 23.8207 21.3752 23.4865 21.3837 23.1419C21.3923 22.7972 21.536 22.4698 21.784 22.2302C23.8256 20.2942 25.088 17.6779 25.333 14.875H22.3125C21.9644 14.875 21.6306 14.7367 21.3844 14.4906C21.1383 14.2444 21 13.9106 21 13.5625C21 13.2144 21.1383 12.8806 21.3844 12.6344C21.6306 12.3883 21.9644 12.25 22.3125 12.25H25.2525C24.5105 7.2345 20.4347 3.28125 15.3125 2.6985V4.8125C15.3125 5.1606 15.1742 5.49444 14.9281 5.74058C14.6819 5.98672 14.3481 6.125 14 6.125C13.6519 6.125 13.3181 5.98672 13.0719 5.74058C12.8258 5.49444 12.6875 5.1606 12.6875 4.8125V2.6985ZM20.0358 6.66225C20.1948 6.53595 20.3928 6.4689 20.5958 6.47258C20.7989 6.47627 20.9943 6.55047 21.1486 6.68246C21.303 6.81445 21.4066 6.99602 21.4417 7.19603C21.4769 7.39605 21.4414 7.60206 21.3412 7.77875L21.1488 8.12175C20.445 9.36443 19.7368 10.6046 19.0243 11.8423C18.4546 12.8326 17.8771 13.8185 17.2917 14.7997C17.0724 15.1689 16.8484 15.5353 16.6197 15.8988C16.4447 16.1735 16.2733 16.4342 16.1473 16.5813C15.6952 17.1108 15.0513 17.4391 14.3572 17.4939C13.663 17.5487 12.9756 17.3256 12.446 16.8735C11.9164 16.4214 11.5881 15.7775 11.5333 15.0834C11.4785 14.3893 11.7017 13.7018 12.1537 13.1723C12.2797 13.0253 12.509 12.8135 12.754 12.5983C13.0165 12.3655 13.3542 12.0803 13.734 11.76C14.497 11.123 15.4525 10.3425 16.3835 9.59C17.494 8.69172 18.6081 7.79804 19.726 6.909L20.0358 6.664V6.66225Z" fill="#18AFF5"/>
</svg>
